<svg width="100" height="100" viewBox="0 0 100 100" fill="none" xmlns="http://www.w3.org/2000/svg">
<circle cx="50" cy="50" r="50" fill="black"/>
<path d="M53.2224 62.5717C52.8741 62.5737 52.525 62.4474 52.2485 62.174C51.7139 61.6454 51.7089 60.7655 52.2375 60.2308L62.3354 50.0174L52.122 39.9195C51.5873 39.3909 51.5823 38.511 52.1109 37.9764C52.6395 37.4417 53.5194 37.4367 54.0541 37.9653L65.2446 49.0293C65.7792 49.5579 65.7842 50.4378 65.2556 50.9724L54.1916 62.1629C53.9182 62.4394 53.5707 62.5698 53.2224 62.5717Z" fill="white"/>
<path d="M63.9764 51.3828L33.1244 51.5582C32.3728 51.5625 31.746 50.9427 31.7417 50.1911C31.7374 49.4396 32.3571 48.8127 33.1087 48.8085L63.9607 48.6331C64.7123 48.6288 65.3391 49.2485 65.3434 50.0001C65.3477 50.7517 64.7279 51.3785 63.9764 51.3828Z" fill="white"/>
</svg>
