<svg width="26" height="25" viewBox="0 0 26 25" fill="none" xmlns="http://www.w3.org/2000/svg">
<g id="&#240;&#159;&#166;&#134; icon &#34;assignment&#34;">
<path id="Vector" fill-rule="evenodd" clip-rule="evenodd" d="M19.3972 0V7.34088H17.9198V1.46818H1.66811V23.4908H17.9198V20.5544H19.3972V24.959H0.190674V0H19.3972ZM21.0903 7.55684C21.3799 7.26908 21.8468 7.26908 22.1364 7.55684L25.0912 10.4932C25.3793 10.7795 25.3793 11.2434 25.0912 11.5312L16.2267 20.3402C16.0878 20.4768 15.9001 20.5546 15.7037 20.5546H12.7488C12.341 20.5546 12.0101 20.2257 12.0101 19.8205V16.8842C12.0101 16.6889 12.0884 16.5024 12.2258 16.3659L21.0903 7.55684ZM19.0589 11.6516L13.4875 17.1881V19.0864H15.3978L20.9692 13.5499L19.0589 11.6516ZM9.05523 16.1501V17.6183H4.62297V16.1501H9.05523ZM12.0101 13.2137V14.6819H4.62295V13.2137H12.0101H12.0101ZM21.6134 9.1131L20.1034 10.6136L22.0137 12.5119L23.5237 11.0115L21.6134 9.1131ZM14.9649 4.40467V10.2774H4.62297V4.40467H14.9649ZM13.4875 5.87286H6.10039V8.80919H13.4875V5.87286H13.4875Z" fill="black" fill-opacity="0.25"/>
</g>
</svg>
