<svg width="26" height="26" viewBox="0 0 26 26" fill="none" xmlns="http://www.w3.org/2000/svg">
<g id="&#240;&#159;&#166;&#134; icon &#34;message&#34;">
<g id="Group">
<path id="Vector" d="M13.2465 25.0286C12.448 25.0286 11.6957 24.6223 11.1633 23.9142L9.42719 21.5924C9.39246 21.546 9.25358 21.4879 9.19571 21.4763H8.61702C3.79073 21.4763 0.804688 20.1645 0.804688 13.6404V7.83596C0.804688 2.70486 3.50139 0 8.61702 0H17.8761C22.9917 0 25.6884 2.70486 25.6884 7.83596V13.6404C25.6884 18.7715 22.9917 21.4763 17.8761 21.4763H17.2974C17.2048 21.4763 17.1238 21.5228 17.0659 21.5924L15.3298 23.9142C14.7974 24.6223 14.0451 25.0286 13.2465 25.0286ZM8.61702 1.74132C4.47359 1.74132 2.54076 3.68 2.54076 7.83596V13.6404C2.54076 18.8876 4.3347 19.735 8.61702 19.735H9.19571C9.78597 19.735 10.4573 20.0717 10.816 20.5476L12.5521 22.8694C12.9572 23.4034 13.5359 23.4034 13.941 22.8694L15.6771 20.5476C16.059 20.0368 16.6608 19.735 17.2974 19.735H17.8761C22.0195 19.735 23.9523 17.7963 23.9523 13.6404V7.83596C23.9523 3.68 22.0195 1.74132 17.8761 1.74132H8.61702Z" fill="#292D32" fill-opacity="0.25"/>
<path id="Vector_2" d="M13.2465 12.479C12.5984 12.479 12.0891 11.9566 12.0891 11.3181C12.0891 10.6796 12.6099 10.1572 13.2465 10.1572C13.8831 10.1572 14.4039 10.6796 14.4039 11.3181C14.4039 11.9566 13.8946 12.479 13.2465 12.479Z" fill="#292D32" fill-opacity="0.25"/>
<path id="Vector_3" d="M17.8765 12.479C17.2284 12.479 16.7191 11.9566 16.7191 11.3181C16.7191 10.6796 17.2399 10.1572 17.8765 10.1572C18.5131 10.1572 19.0339 10.6796 19.0339 11.3181C19.0339 11.9566 18.5246 12.479 17.8765 12.479Z" fill="#292D32" fill-opacity="0.25"/>
<path id="Vector_4" d="M8.61667 12.479C7.96854 12.479 7.45929 11.9566 7.45929 11.3181C7.45929 10.6796 7.98011 10.1572 8.61667 10.1572C9.25323 10.1572 9.77405 10.6796 9.77405 11.3181C9.77405 11.9566 9.2648 12.479 8.61667 12.479Z" fill="#292D32" fill-opacity="0.25"/>
</g>
</g>
</svg>
