<svg width="25" height="25" viewBox="0 0 25 25" fill="none" xmlns="http://www.w3.org/2000/svg">
<g id="&#240;&#159;&#166;&#134; icon &#34;user&#34;">
<path id="Vector" d="M17.2572 13.3647C18.4619 12.4026 19.3412 11.0834 19.7728 9.5905C20.2044 8.09759 20.1669 6.50525 19.6654 5.03502C19.1639 3.56479 18.2233 2.28977 16.9747 1.38736C15.726 0.484941 14.2313 0 12.6984 0C11.1656 0 9.67087 0.484941 8.42221 1.38736C7.17354 2.28977 6.23303 3.56479 5.73153 5.03502C5.23002 6.50525 5.19246 8.09759 5.62407 9.5905C6.05568 11.0834 6.93499 12.4026 8.13967 13.3647C6.07542 14.2041 4.27429 15.5964 2.92829 17.3931C1.58229 19.1899 0.741888 21.3236 0.49667 23.567C0.478919 23.7308 0.493126 23.8965 0.538479 24.0548C0.583832 24.213 0.659443 24.3606 0.760994 24.4891C0.966086 24.7488 1.26439 24.9151 1.59028 24.9515C1.91618 24.9878 2.24296 24.8913 2.49875 24.6832C2.75454 24.475 2.91838 24.1722 2.95423 23.8414C3.22405 21.4033 4.3694 19.1516 6.17144 17.5165C7.97348 15.8813 10.3059 14.9774 12.723 14.9774C15.1402 14.9774 17.4726 15.8813 19.2746 17.5165C21.0766 19.1516 22.222 21.4033 22.4918 23.8414C22.5252 24.1479 22.6693 24.4309 22.8962 24.6359C23.1231 24.8409 23.4168 24.9533 23.7206 24.9515H23.8558C24.1779 24.9138 24.4723 24.7485 24.6748 24.4915C24.8774 24.2346 24.9716 23.9067 24.9371 23.5795C24.6907 21.3298 23.8458 19.1905 22.4929 17.391C21.1399 15.5915 19.3301 14.1997 17.2572 13.3647ZM12.6984 12.4792C11.7263 12.4792 10.776 12.1866 9.96775 11.6384C9.15947 11.0902 8.52948 10.311 8.15747 9.39941C7.78546 8.48781 7.68812 7.4847 7.87777 6.51694C8.06742 5.54919 8.53554 4.66025 9.22293 3.96253C9.91032 3.26482 10.7861 2.78967 11.7396 2.59718C12.693 2.40468 13.6813 2.50347 14.5794 2.88107C15.4775 3.25867 16.2451 3.89812 16.7852 4.71854C17.3253 5.53896 17.6136 6.50352 17.6136 7.49023C17.6136 8.81338 17.0957 10.0823 16.174 11.0179C15.2522 11.9535 14.002 12.4792 12.6984 12.4792Z" fill="black" fill-opacity="0.25"/>
</g>
</svg>
