<svg width="26" height="25" viewBox="0 0 26 25" fill="none" xmlns="http://www.w3.org/2000/svg">
<g id="&#240;&#159;&#166;&#134; icon &#34;home&#34;">
<path id="Vector" d="M24.7258 10.1524L13.5953 0.475556C13.2335 0.160968 12.757 -0.00928256 12.2654 0.000390746C11.7738 0.010064 11.3052 0.198912 10.9575 0.527463L0.720715 10.2013L0.195374 10.6977V24.959H10.0599V16.0608H15.4405V24.959H25.305V10.656L24.7258 10.1524ZM12.3039 1.69493C12.3197 1.69493 12.31 1.69816 12.3032 1.70447C12.2962 1.69816 12.2881 1.69493 12.3039 1.69493ZM23.5115 23.2641H17.2341V16.0608C17.2341 15.6112 17.0451 15.1801 16.7087 14.8623C16.3724 14.5444 15.9162 14.3659 15.4405 14.3659H10.0599C9.5842 14.3659 9.12801 14.5444 8.79165 14.8623C8.4553 15.1801 8.26633 15.6112 8.26633 16.0608V23.2641H1.98892V11.3998L12.3039 1.72592C12.3047 1.72528 12.3047 1.7247 12.3053 1.72406L23.5115 11.3998V23.2641Z" fill="black" fill-opacity="0.25"/>
</g>
</svg>
